<?xml version="1.0" encoding="iso-8859-1"?>
<!-- Generator: Adobe Illustrator 18.0.0, SVG Export Plug-In . SVG Version: 6.00 Build 0)  -->
<!DOCTYPE svg PUBLIC "-//W3C//DTD SVG 1.1//EN" "http://www.w3.org/Graphics/SVG/1.1/DTD/svg11.dtd">
<svg version="1.1" id="Layer_1" xmlns="http://www.w3.org/2000/svg" xmlns:xlink="http://www.w3.org/1999/xlink" x="0px" y="0px"
	 viewBox="0 0 96.3 108.3" enable-background="new 0 0 96.3 108.3" xml:space="preserve">
<g>
	<path fill="#C2C4C6" d="M49.6,108.2V53l25-10v-7.8c4-0.5,7-3.7,7-7.6c0-4.2-3.3-7.7-7.6-7.7s-7.9,3.5-7.9,7.7
		c0,3.9,3.5,7.1,6.5,7.6v6.4l-23,9.2V18.6c5-0.5,8.3-4.5,8.3-9.3c0-5.2-4.1-9.3-9.3-9.3c-5.2,0-9.4,4.2-9.4,9.3
		c0,4.9,4.4,8.8,8.4,9.3v52.1l-20-10V38l-9.8-7.4c0.7-1.2,1.2-2.6,1.2-4c0-4.2-3.4-7.7-7.7-7.7c-4.2,0-7.7,3.5-7.7,7.7
		s3.5,7.7,7.7,7.7c2,0,3.8-0.8,5.1-2.1l9.1,6.8v23l22,11v25.9l-39-15.2V71.7c4-0.5,6.8-3.7,6.8-7.6c0-4.2-3.4-7.7-7.6-7.7
		S0,59.9,0,64.1c0,3.9,2.6,7.1,6.6,7.6V85l41,16v7.3C48.6,108.3,49.6,108.3,49.6,108.2z M68.4,27.7c0-3.1,2.6-5.7,5.7-5.7
		s5.7,2.6,5.7,5.7s-2.6,5.7-5.7,5.7S68.4,30.8,68.4,27.7z M11.4,32.2c-3.1,0-5.7-2.6-5.7-5.7s2.6-5.7,5.7-5.7c3.1,0,5.7,2.6,5.7,5.7
		S14.6,32.2,11.4,32.2z M2.2,64.1c0-3.1,2.6-5.7,5.7-5.7s5.7,2.6,5.7,5.7c0,3.1-2.6,5.7-5.7,5.7S2.2,67.2,2.2,64.1z"/>
	<path fill="#C2C4C6" d="M96.3,54.9c0-4.2-3.5-7.7-7.7-7.7c-4.2,0-7.7,3.5-7.7,7.7c0,3.9,2.7,7.1,6.7,7.6v4.2l-32,14v26.9
		c1-0.1,2-0.2,2-0.3V82l32-14v-5.5C93.6,62,96.3,58.8,96.3,54.9z M88.6,60.6c-3.1,0-5.7-2.6-5.7-5.7s2.6-5.7,5.7-5.7
		c3.1,0,5.7,2.6,5.7,5.7S91.7,60.6,88.6,60.6z"/>
</g>
</svg>
