<?xml version="1.0" encoding="iso-8859-1"?>
<!-- Generator: Adobe Illustrator 18.0.0, SVG Export Plug-In . SVG Version: 6.00 Build 0)  -->
<!DOCTYPE svg PUBLIC "-//W3C//DTD SVG 1.1//EN" "http://www.w3.org/Graphics/SVG/1.1/DTD/svg11.dtd">
<svg version="1.1" id="Layer_1" xmlns="http://www.w3.org/2000/svg" xmlns:xlink="http://www.w3.org/1999/xlink" x="0px" y="0px"
	 viewBox="0 0 108.3 81.5" enable-background="new 0 0 108.3 81.5" xml:space="preserve">
<g>
	<g>
		<path fill="#C2C4C6" d="M102.5,60.9c1.1-1.2,1-2.8,1-2.9V9h-90v32.6L0,57.4c0.3,0.7,0.6,1.3,0.9,2l36.8-42.9
			c0.4-0.4,0.3-1.1-0.1-1.4c-0.4-0.4-1.1-0.3-1.4,0.1L15.5,39.3V11h86v47c0,0,0.1,0.9-0.5,1.5c-0.3,0.3-0.8,0.5-1.5,0.5H53.5
			l13.4-6.4c0.5-0.2,0.7-0.8,0.5-1.3s-0.8-0.7-1.3-0.5L13.3,77c0.5,0.5,1,1,1.5,1.5l34.7-16.6V62h6.7L38.5,79.8
			c-0.4,0.4-0.4,1,0,1.4c0.2,0.2,0.5,0.3,0.7,0.3s0.5-0.1,0.7-0.3l17.7-17.7v16c0,0.6,0.4,1,1,1s1-0.4,1-1v-16l17.8,17.8
			c0.2,0.2,0.5,0.3,0.7,0.3s0.5-0.1,0.7-0.3c0.4-0.4,0.4-1,0-1.4L61,62h38.6C100.9,62,101.8,61.6,102.5,60.9z"/>
		<polygon fill="#C2C4C6" points="51.7,23 38.3,34.2 51.7,45.5 53.9,43.3 43,34.2 53.9,25.2 		"/>
		<path fill="#C2C4C6" d="M12.2,6h93.1c1.6,0,2.9-1.3,2.9-3s-1.3-3-2.9-3H12.2c-1.6,0-2.9,1.3-2.9,3S10.6,6,12.2,6z M12.2,2h93.1
			c0.5,0,0.9,0.5,0.9,1s-0.4,1-0.9,1H12.2c-0.5,0-0.9-0.5-0.9-1S11.7,2,12.2,2z"/>
		<polygon fill="#C2C4C6" points="64.5,45.5 77.9,34.2 64.5,23 62.3,25.2 73.2,34.3 62.3,43.3 		"/>
	</g>
</g>
</svg>
