<?xml version="1.0" encoding="iso-8859-1"?>
<!-- Generator: Adobe Illustrator 18.0.0, SVG Export Plug-In . SVG Version: 6.00 Build 0)  -->
<!DOCTYPE svg PUBLIC "-//W3C//DTD SVG 1.1//EN" "http://www.w3.org/Graphics/SVG/1.1/DTD/svg11.dtd">
<svg version="1.1" id="Layer_1" xmlns="http://www.w3.org/2000/svg" xmlns:xlink="http://www.w3.org/1999/xlink" x="0px" y="0px"
	 viewBox="0 0 80 92.5" enable-background="new 0 0 80 92.5" xml:space="preserve">
<g>
	<path fill="#C2C4C6" d="M53.4,10H26.9c-0.6,0-1,0.4-1,1s0.4,1,1,1h26.5c0.6,0,1-0.4,1-1S53.9,10,53.4,10z"/>
	<path fill="#C2C4C6" d="M76.8,0H3.2C1.5,0,0,1.5,0,3.2v87.7c0.7,0.5,1.3,1.1,2,1.6V23h76v69c0.7-0.5,1.3-1.1,2-1.6V3.2
		C80,1.5,78.5,0,76.8,0z M78,21H2V3.2C2,2.6,2.6,2,3.2,2h73.5C77.4,2,78,2.6,78,3.2V21z"/>
	<path fill="#C2C4C6" d="M57.4,51.1c-4.1-2.8-13.9-3.9-18.1,2.9c-4.3-6-13.6-5.7-17.7-2.9c-5.1,3.5-7,9.9-5.5,16.4
		c2.2,9.3,14.3,13.7,20.4,18.6c2.2,1.7,5.2,1.7,7.3,0c5.6-4.6,15.6-10,18.6-17.4C66.2,61.3,61.5,53.2,57.4,51.1z"/>
</g>
</svg>
